<?xml version="1.0" encoding="UTF-8"?>
<svg id="Layer_1" data-name="Layer 1" xmlns="http://www.w3.org/2000/svg" viewBox="0 0 207.32 207.32">
  <defs>
    <style>
      .cls-1 {
        stroke-width: 0px;
      }
    </style>
  </defs>
  <g>
    <path class="cls-1" d="M99.41,170.49c-18.43,0-36.63-4.74-52.63-13.7l-4.23-2.37.61-4.81c4.17-33.08,23.94-62.84,52.9-79.61l3.6-2.09,3.6,2.08c28.9,16.71,48.68,46.31,52.91,79.2l.61,4.77-4.17,2.39c-16.13,9.24-34.52,14.12-53.2,14.12ZM58.18,146.54c12.76,6.27,26.91,9.57,41.22,9.57s28.86-3.41,41.74-9.89c-4.63-25.15-19.78-47.65-41.47-61.55-21.74,13.96-36.89,36.58-41.49,61.88Z"/>
    <path class="cls-1" d="M165.48,144.22c2.72,0,4.96,2.19,4.96,4.98s-2.15,4.98-4.96,4.98c-2.65,0-4.96-2.15-4.96-4.98,0-2.68,2.15-4.98,4.96-4.98ZM165.48,153.46c2.4,0,4.24-1.96,4.24-4.27s-1.91-4.26-4.23-4.26-4.26,1.91-4.26,4.27,1.94,4.26,4.24,4.26ZM167.61,151.78c-.72.25-1.15.36-1.79.36-2.05,0-3.13-1.21-3.13-2.88,0-1.46.97-2.91,3.09-2.91.57,0,1.16.08,1.79.3v1.4c-.51-.24-.97-.36-1.44-.36-1.1,0-1.71.65-1.71,1.54s.68,1.55,1.75,1.55c.39,0,.78-.08,1.44-.37v1.37Z"/>
  </g>
  <path class="cls-1" d="M141.68,61.26c-1.65,9.09-4.7,17.87-8.93,26.06,3.5,3.84,6.73,7.91,9.66,12.18,7.49-12.62,12.45-26.7,14.29-41.32l.61-4.81-4.23-2.37c-16-8.96-34.2-13.7-52.63-13.7s-37.08,4.88-53.2,14.12l-4.17,2.39.61,4.77c2.6,20.2,11.08,39.16,23.93,54.65,2.59-4.25,5.5-8.31,8.72-12.12-8.83-11.56-14.96-25.1-17.62-39.53,12.88-6.49,27.21-9.89,41.74-9.89s28.47,3.3,41.22,9.57Z"/>
  <path class="cls-1" d="M128.44,94.86c-3.74,5.84-8.12,11.28-13.1,16.18-4.62,4.55-9.7,8.61-15.14,12.1-6.86-4.4-13.02-9.7-18.44-15.64-3.12,3.82-5.9,7.9-8.34,12.18,6.81,7.01,14.58,13.14,23.18,18.11l3.6,2.08,3.6-2.09c7.86-4.55,15.14-10.1,21.63-16.49,4.46-4.39,8.49-9.16,12.1-14.22-2.73-4.28-5.77-8.37-9.1-12.22Z"/>
</svg>